<?xml version="1.0" encoding="UTF-8" standalone="no"?>
<!-- Created with Inkscape (http://www.inkscape.org/) -->

<svg
   width="210mm"
   height="297mm"
   viewBox="0 0 210 297"
   version="1.1"
   id="svg275"
   inkscape:version="1.1 (c68e22c387, 2021-05-23)"
   sodipodi:docname="doc-opstopus.svg"
   xmlns:inkscape="http://www.inkscape.org/namespaces/inkscape"
   xmlns:sodipodi="http://sodipodi.sourceforge.net/DTD/sodipodi-0.dtd"
   xmlns="http://www.w3.org/2000/svg"
   xmlns:svg="http://www.w3.org/2000/svg">
  <sodipodi:namedview
     id="namedview277"
     pagecolor="#010101"
     bordercolor="#666666"
     borderopacity="1.0"
     inkscape:pageshadow="2"
     inkscape:pageopacity="0"
     inkscape:pagecheckerboard="0"
     inkscape:document-units="mm"
     showgrid="false"
     inkscape:zoom="0.41959175"
     inkscape:cx="154.91248"
     inkscape:cy="561.25984"
     inkscape:window-width="1366"
     inkscape:window-height="709"
     inkscape:window-x="0"
     inkscape:window-y="0"
     inkscape:window-maximized="1"
     inkscape:current-layer="layer1" />
  <defs
     id="defs272" />
  <g
     inkscape:label="Layer 1"
     inkscape:groupmode="layer"
     id="layer1">
    <path
       style="fill:#fafafa;stroke-width:0.264583;fill-opacity:1"
       d="m 83.940576,208.50773 c -1.422464,-0.73512 -1.569474,-2.0273 -0.66122,-5.81202 0.727683,-3.03228 0.729059,-3.79224 0.0069,-3.79224 -0.607068,0 -6.318826,-2.75352 -7.469529,-3.60091 -4.57309,-3.36765 -6.01274,-5.02524 -7.270961,-8.37165 -0.451361,-1.20045 -0.914069,-2.28613 -1.02824,-2.4126 -0.115212,-0.12763 -0.932373,0.0148 -1.836443,0.32012 -7.344107,2.48015 -13.622577,0.2811 -16.583147,-5.80827 -2.98815,-6.14611 -2.82021,-15.48718 0.41329,-22.98735 2.82004,-6.54114 8.26758,-11.88135 14.71198,-14.42212 3.157951,-1.24506 6.348347,-1.75776 10.372951,-1.66695 3.505044,0.0791 3.544596,0.0734 3.695004,-0.52769 0.221938,-0.88701 -0.146076,-1.07308 -0.720648,-0.36437 -0.672298,0.82925 -1.042951,0.51862 -1.042951,-0.87405 0,-1.54618 0.182428,-1.93433 1.142431,-2.43077 l 0.813724,-0.42079 -0.9383,-0.48138 c -3.052487,-1.56602 -4.625303,-5.9054 -3.959487,-10.92418 0.634161,-4.78016 2.905527,-10.14824 6.86022,-16.21323 2.286664,-3.50689 2.661621,-4.83452 2.176936,-7.70805 -1.422553,-8.433852 -8.684064,-11.219577 -17.593503,-6.749373 -2.472877,1.240736 -6.672707,3.968179 -6.859357,4.454587 -0.0818,0.213055 -0.0351,0.68613 0.10376,1.051279 0.20125,0.529328 0.14612,0.770208 -0.272,1.188326 -1.10625,1.106251 -0.35991,3.744681 1.33151,4.707081 0.62995,0.35845 0.78689,0.62692 0.78823,1.34845 0.002,0.85643 0.0256,0.87926 0.48616,0.46245 0.62193,-0.56284 0.83843,-0.32764 0.83843,0.91081 0,1.06241 -0.38506,1.60196 -1.58677,2.22339 -0.65159,0.33695 -0.7613,0.33619 -0.89268,-0.006 -0.27,-0.70361 -0.82206,-0.41346 -2.20705,1.15998 -0.78944,0.89684 -1.8725,1.78903 -2.56952,2.11666 -2.07584,0.97576 -5.15511,0.6748 -8.3866,-0.81969 l -1.42301,-0.6581 3.04271,0.0143 c 2.35772,0.0111 3.2951,-0.0926 4.16382,-0.46051 1.53725,-0.651 2.71536,-2.03854 2.71536,-3.19804 0,-0.62392 0.15864,-0.99243 0.50766,-1.17922 0.60712,-0.32492 0.87558,-1.39456 0.85171,-3.39347 -0.0236,-1.97204 -0.38788,-2.33227 -1.77288,-1.75293 -1.98265,0.82932 -5.26037,0.14921 -7.35221,-1.525534 -0.94391,-0.755698 -1.09042,-0.794253 -1.99189,-0.524166 -1.23428,0.369798 -2.68175,1.85002 -2.91254,2.97844 -0.13975,0.68328 -0.35077,0.9141 -0.98628,1.07877 -2.34031,0.60644 -1.49576,5.61747 1.37097,8.13449 0.53017,0.46549 0.9188,0.8915 0.86362,0.94668 -0.21521,0.21521 -2.27173,-0.91061 -3.57205,-1.95547 -2.57401,-2.06834 -3.8598,-4.97058 -3.23666,-7.30561 0.60229,-2.2569 0.5976,-2.51152 -0.0591,-3.2106 l -0.62702,-0.667436 0.98781,-0.905253 c 1.3468,-1.234258 1.86033,-1.207347 1.65882,0.08693 -0.1498,0.962208 -0.14159,0.974797 0.27176,0.416619 0.34181,-0.461563 0.60586,-0.546418 1.33311,-0.4284 1.01005,0.163906 1.07982,0.01889 0.51338,-1.06715 -0.74239,-1.423369 -1.72316,-4.972666 -1.72316,-6.235895 0,-1.03548 0.19909,-1.576285 1.08484,-2.946707 0.83809,-1.296685 1.05686,-1.862699 0.9618,-2.488416 -0.11114,-0.731471 -0.016,-0.864086 0.98194,-1.368705 1.10355,-0.558018 1.10586,-0.558063 1.75019,-0.03397 0.6449,0.524546 0.64522,0.524536 0.72794,-0.02291 0.0455,-0.301229 -0.0421,-0.780909 -0.19461,-1.065956 -0.23942,-0.447369 -0.1639,-0.557819 0.55204,-0.807398 0.45617,-0.159021 0.99591,-0.289131 1.19943,-0.289131 0.51287,0 1.40212,1.013443 3.03989,3.464431 0.76878,1.150501 1.51867,2.091086 1.66642,2.09019 0.14776,-9e-4 0.57349,-0.160709 0.94606,-0.35514 0.45399,-0.236919 0.88459,-0.276866 1.3056,-0.121123 0.54288,0.200822 0.82822,0.0384 2.10073,-1.195745 2.51185,-2.436133 4.9982,-3.876858 8.70909,-5.046504 7.935955,-2.501361 16.089953,-0.817626 21.708505,4.482631 2.644311,2.494511 5.441904,6.751107 6.652333,10.121664 0.329147,0.916545 0.692087,1.571389 0.806533,1.455208 0.114442,-0.116179 0.633356,-1.073533 1.153136,-2.127452 1.159306,-2.350631 2.224328,-3.148666 4.720759,-3.537324 1.441484,-0.224419 1.870928,-0.199134 2.545888,0.149903 1.34796,0.697057 1.69584,1.492378 1.60086,3.659891 -0.16166,3.689153 -0.054,4.724251 0.53423,5.136258 0.29754,0.2084 0.76934,0.82655 1.04845,1.37366 0.50093,0.9819 0.50078,1.0201 -0.0119,2.95908 -0.75145,2.84182 -0.66577,3.0045 2.02391,3.8431 1.24062,0.38681 2.30015,0.6581 2.35453,0.60288 0.0544,-0.0552 0.23488,-2.18399 0.40112,-4.73061 1.23067,-18.852118 6.11866,-29.262092 14.80468,-31.529528 5.73275,-1.496502 12.97563,1.031917 18.04021,6.297666 1.89698,1.972329 2.80924,3.498884 3.11613,5.214481 l 0.19672,1.099675 1.21537,-1.852083 c 0.66846,-1.018646 1.61362,-2.301117 2.10036,-2.849936 0.8569,-0.966183 0.91691,-0.98876 1.89095,-0.711364 l 1.00596,0.286489 -0.17999,1.24053 -0.17998,1.240531 0.67955,-0.626573 0.67957,-0.626572 1.18746,0.574844 c 1.12558,0.54488 1.17987,0.621686 1.04164,1.473489 -0.11883,0.732289 0.006,1.089915 0.6725,1.931872 1.0372,1.309583 1.36335,2.17374 1.36335,3.612295 0,1.260189 -0.83109,4.209274 -1.62731,5.774407 -0.59462,1.168841 -0.4326,1.621808 0.49667,1.388577 0.44894,-0.112678 0.83696,-0.0126 1.19914,0.309291 0.52916,0.470301 0.5333,0.464258 0.35377,-0.516317 -0.0999,-0.545703 -0.10102,-0.992187 -0.002,-0.992187 0.42316,0 1.99318,1.15242 2.26696,1.663984 0.25064,0.468325 0.20744,0.619034 -0.26793,0.934666 -0.66978,0.44472 -0.7028,1.037849 -0.15727,2.825303 0.74943,2.45558 -0.17608,4.96127 -2.67663,7.24664 -2.41297,2.20532 -5.12488,3.37742 -2.97587,1.28618 1.98377,-1.93044 2.91701,-4.59344 2.33644,-6.66703 -0.28374,-1.01341 -0.43427,-1.17655 -1.22205,-1.32434 -0.7841,-0.14708 -0.89854,-0.26947 -0.89854,-0.96091 0,-1.006985 -1.80612,-2.805589 -3.05203,-3.039324 -0.6991,-0.131153 -1.10527,0.0078 -2.17678,0.74491 -2.18196,1.500926 -3.33053,1.677364 -7.86513,1.208199 -0.75134,-0.07773 -0.79876,-0.02344 -0.94973,1.087075 -0.21612,1.58967 0.16903,3.49848 0.81373,4.03289 0.34318,0.28447 0.52994,0.76144 0.52994,1.35338 0,1.13655 0.75896,2.13676 2.20783,2.90966 0.963,0.51371 1.50236,0.58668 4.34547,0.58793 3.58055,0.002 3.69228,0.15718 0.87087,1.21298 -4.52987,1.69513 -7.54002,1.15243 -9.88604,-1.78235 -1.1062,-1.38379 -1.67236,-1.67143 -2.21731,-1.12649 -0.36477,0.36477 -1.79986,-0.33321 -2.19214,-1.0662 -0.30198,-0.56425 -0.37447,-2.3959 -0.0948,-2.3959 0.0977,0 0.39534,0.19704 0.66146,0.43788 0.46023,0.4165 0.48385,0.3914 0.48385,-0.51421 0,-0.78242 0.14471,-1.03727 0.81203,-1.43007 1.70138,-1.00147 2.4527,-3.672332 1.32111,-4.696405 -0.39836,-0.360513 -0.45939,-0.604171 -0.27369,-1.092617 0.34245,-0.900693 -0.5594,-4.205032 -1.7856,-6.542417 -1.23659,-2.357167 -3.90147,-5.117388 -5.88048,-6.090845 -1.66184,-0.817438 -4.04785,-0.962494 -5.28749,-0.321448 -3.49171,1.805631 -6.03496,10.962693 -5.77118,20.779292 0.0987,3.67538 0.2103,4.61385 0.70547,5.93551 1.3317,3.55443 2.50448,5.12295 7.43172,9.9395 3.54332,3.46372 4.16042,4.36311 4.91245,7.15962 1.78889,6.65224 -1.27142,13.36747 -7.49802,16.45287 -2.26192,1.12083 -2.28606,1.12605 -5.20283,1.12486 -3.60217,-0.002 -4.74326,-0.46856 -7.26642,-2.97449 l -1.69023,-1.67869 0.17399,1.00427 c 0.35962,2.07569 0.73649,7.01236 0.58225,7.62691 -0.20027,0.79793 -1.15656,1.71173 -1.79131,1.71173 -0.97498,0 -0.42989,0.97353 1.70354,3.0425 5.52253,5.35571 10.51131,5.41323 16.13977,0.18611 1.85279,-1.72068 4.798,-5.29795 6.62112,-8.04205 1.86511,-2.8073 3.9215,-4.69232 6.528,-5.98396 1.85733,-0.9204 2.11597,-0.97649 4.49791,-0.97545 2.22863,10e-4 2.70523,0.0884 4.03333,0.73959 4.03362,1.97782 7.40384,6.80071 9.75431,13.95871 1.68061,5.11801 1.93276,6.84658 1.75327,12.01922 -0.16177,4.66158 -0.50382,6.78943 -1.63969,10.20012 -1.30171,3.90871 -4.17167,7.80121 -6.96446,9.44587 -1.05057,0.61867 -1.13373,0.74479 -0.99137,1.50365 0.11808,0.62938 0.0281,0.93733 -0.37459,1.28213 -1.07699,0.92214 -0.41811,3.45158 1.16653,4.47833 0.8177,0.52982 0.94397,0.75124 0.95192,1.66918 l 0.009,1.05834 0.50687,-0.65973 c 0.43173,-0.56194 0.53153,-0.59548 0.67321,-0.22627 0.0915,0.23841 0.12864,0.88951 0.0826,1.44689 -0.072,0.87047 -0.23254,1.09661 -1.13839,1.60317 -0.8911,0.4983 -1.08801,0.53009 -1.26992,0.20503 -0.36303,-0.64869 -0.74494,-0.44532 -2.21568,1.1799 -1.7895,1.97746 -3.16729,2.66872 -5.31924,2.66872 -1.64858,0 -5.10377,-0.93627 -6.41242,-1.73759 -0.6184,-0.37867 -0.52367,-0.39499 1.45521,-0.25067 4.64157,0.33852 7.55101,-1.00283 7.98573,-3.68167 0.0917,-0.56502 0.37034,-1.23093 0.61921,-1.47981 0.89048,-0.89048 0.97655,-4.79051 0.11304,-5.12187 -0.20385,-0.0782 -0.78645,0.0315 -1.29467,0.24386 -2.26571,0.94667 -5.21121,0.1919 -8.2411,-2.11176 -0.44057,-0.33497 -2.24283,0.49162 -3.16064,1.44961 -0.39043,0.40752 -0.78962,1.13086 -0.88709,1.6074 -0.14044,0.6867 -0.34952,0.9111 -1.00778,1.08168 -0.726,0.18812 -0.8647,0.37428 -1.1015,1.47846 -0.48371,2.25546 0.69641,5.22699 2.69794,6.79343 1.15816,0.90639 0.76974,1.04762 -0.76966,0.27986 -1.80494,-0.9002 -3.9902,-3.06492 -4.75735,-4.71265 -0.74566,-1.60155 -0.85227,-3.68317 -0.26109,-5.09806 0.42921,-1.02725 0.3014,-1.60951 -0.50551,-2.30284 -0.53955,-0.46361 -0.5373,-0.46996 0.49424,-1.38906 1.389,-1.23761 1.81995,-1.21888 1.58417,0.0689 l -0.18166,0.99219 0.58864,-0.52402 c 0.37061,-0.32993 0.87446,-0.49404 1.3603,-0.44308 0.93686,0.0983 0.94628,-0.04 0.12571,-1.8452 -0.35528,-0.78157 -0.8454,-2.22232 -1.08917,-3.20167 -0.59019,-2.37109 -0.36389,-3.80848 0.84998,-5.39872 0.75868,-0.99394 0.91659,-1.40804 0.84063,-2.20456 -0.0891,-0.93468 -0.0404,-1.0027 1.03777,-1.44864 1.04435,-0.43195 1.18112,-0.43527 1.7795,-0.0432 0.88915,0.58259 0.92453,0.55433 0.63207,-0.50488 -0.32203,-1.1663 -0.18283,-1.38686 1.01734,-1.61201 1.10357,-0.20703 1.25929,-0.0636 3.5288,3.25097 0.71553,1.04499 1.40228,1.96261 1.52612,2.03915 0.12385,0.0765 0.6604,0.006 1.19235,-0.15768 1.19594,-0.36704 2.29514,0.0367 2.29514,0.84307 0,0.83048 0.45188,0.63694 1.3241,-0.56712 3.11291,-4.29724 3.14264,-17.03635 0.0542,-23.22046 -1.18297,-2.36871 -2.41109,-3.46131 -4.10528,-3.65226 -3.31182,-0.3733 -6.22497,2.17792 -11.46523,10.04079 -4.1743,6.26343 -6.89349,8.43199 -10.82288,8.6313 -1.27207,0.0645 -2.17536,-0.0355 -2.84428,-0.31501 -0.53911,-0.22526 -0.9802,-0.36553 -0.9802,-0.31172 0,0.0538 0.66076,1.24231 1.46836,2.6411 0.80761,1.39879 1.68948,3.05909 1.95972,3.68954 0.27025,0.63044 1.71007,3.38596 3.19961,6.12337 3.03915,5.58521 3.30214,6.49243 2.39658,8.26748 -0.73643,1.44351 -2.38056,2.99561 -4.08876,3.85988 -1.80021,0.91082 -4.96209,1.57175 -6.69977,1.40045 -1.08094,-0.10656 -1.45463,-0.0384 -1.78386,0.32541 -0.37616,0.41565 -0.37761,0.61209 -0.0149,2.02916 0.22085,0.86293 0.67283,2.10475 1.0044,2.75959 0.58666,1.15864 0.63988,1.19278 1.98066,1.27071 1.77562,0.10319 2.08545,0.56378 2.32691,3.45906 l 0.18447,2.21201 -2.48804,-0.1712 c -5.24073,-0.36061 -5.54302,-0.4184 -5.80597,-1.11001 -0.29243,-0.76914 -0.78312,-0.83451 -0.78312,-0.10432 0,0.46426 -0.17639,0.52917 -1.43798,0.52917 -2.37378,0 -2.72595,-0.2455 -2.92071,-2.03605 -0.31248,-2.87284 -0.24058,-2.76633 -1.73382,-2.56825 l -1.31582,0.17456 v -4.13513 c 0,-2.27432 -0.0298,-4.13458 -0.0661,-4.13391 -0.0364,8e-4 -0.78052,0.29551 -1.653649,0.65518 -2.0115,0.82862 -5.002723,0.89655 -7.612496,0.17288 -2.00496,-0.55596 -1.962375,-0.60049 -1.46916,1.53623 0.285869,1.23846 0.264451,1.41058 -0.264583,2.12614 -0.693248,0.93767 -0.734012,2.14577 -0.178761,5.29793 0.217885,1.23693 0.396315,3.22848 0.396513,4.42568 2.65e-4,2.07384 -0.03345,2.19888 -0.715174,2.64583 -1.060693,0.69541 -4.662715,0.78799 -5.894329,0.1515 z m 50.576014,-23.00672 c 0.26612,-0.24084 0.48385,-0.63926 0.48385,-0.8854 0,-0.24613 0.19071,-0.82978 0.42379,-1.297 0.23308,-0.46723 0.35945,-1.09553 0.28081,-1.39623 -0.0799,-0.30541 0.0656,-0.85348 0.32965,-1.24168 0.25995,-0.38221 0.75866,-1.13852 1.10825,-1.68067 0.3496,-0.54215 1.02258,-1.1943 1.49553,-1.44923 0.95976,-0.51733 1.0592,-0.73923 0.43807,-0.97758 -0.26885,-0.10317 -0.69117,0.12646 -1.16449,0.63315 -0.79622,0.85236 -1.774,1.04487 -2.02217,0.39814 -0.24154,-0.62943 -0.57195,-0.47075 -1.23956,0.59532 -0.99374,1.58681 -1.50196,3.44555 -1.50196,5.49313 0,2.35724 0.30948,2.7662 1.36823,1.80805 z M 61.876566,171.25937 c 1.62876,-0.48369 4.170271,-2.10524 6.849973,-4.37047 3.62807,-3.06692 9.13197,-9.81368 10.900072,-13.36146 0.77443,-1.55394 1.214358,-4.12047 0.864166,-5.04155 -0.228886,-0.60201 -0.20478,-0.78864 0.125751,-0.97361 0.890389,-0.49829 0.310814,-0.73172 -1.816769,-0.73172 -3.896239,0 -8.036936,1.08804 -11.199686,2.94292 -2.261573,1.32635 -6.053557,5.25925 -7.444617,7.72127 -1.72853,3.05931 -2.74522,6.21168 -2.88645,8.94978 -0.14462,2.80383 0.21152,4.04672 1.36027,4.74719 1.00263,0.61136 1.52149,0.63016 3.24729,0.11765 z M 85.234772,140.629 c -0.119645,-0.61846 -0.222721,-1.22836 -0.229058,-1.35531 -0.02551,-0.51109 -0.783098,0.45359 -0.948838,1.20821 -0.185846,0.84614 0.129876,1.25959 0.967936,1.26753 0.360918,0.003 0.393615,-0.17107 0.20996,-1.12043 z m 35.627438,-3.49577 c 1.69118,-0.70662 2.4083,-3.32399 1.56534,-5.71321 -0.57663,-1.63434 -1.47776,-2.69909 -3.6455,-4.30743 -3.57408,-2.65176 -6.69825,-6.43653 -8.57471,-10.38781 -0.51684,-1.08832 -0.99927,-1.91921 -1.07206,-1.84642 -0.1695,0.1695 -0.55896,3.56043 -0.76568,6.66659 l -0.16062,2.41336 1.45916,3.0106 c 2.60681,5.37849 5.36407,8.86168 7.94073,10.03134 1.35262,0.614 2.0353,0.64191 3.25334,0.13298 z m -29.363261,-2.76919 c 0.164571,-1.24059 0.144335,-1.3013 -0.387432,-1.16224 -0.607936,0.15898 -0.691015,0.71816 -0.383421,2.58067 0.148622,0.89992 0.200559,0.96279 0.384522,0.4655 0.11698,-0.31623 0.290829,-1.16399 0.386331,-1.88393 z m -10.738091,1.03944 c 0,-0.14552 -0.238125,-0.26459 -0.529166,-0.26459 -0.291042,0 -0.529167,0.11907 -0.529167,0.26459 0,0.14552 0.238125,0.26458 0.529167,0.26458 0.291041,0 0.529166,-0.11906 0.529166,-0.26458 z m 3.394234,-8.9934 c 0.600808,-0.43523 1.145984,-1.0603 1.211503,-1.38906 0.617853,-3.10033 1.114687,-10.78421 0.697299,-10.78421 -0.407368,0 -2.880953,3.49852 -3.83494,5.42396 -1.541864,3.11195 -1.845362,5.86368 -0.776941,7.04427 0.637771,0.70473 1.44458,0.61669 2.703079,-0.29496 z m 6.463305,-17.74835 c 0.996135,-0.45387 1.299057,-1.13846 0.911548,-2.06007 l -0.329949,-0.78472 -0.820266,1.5641 c -0.846754,1.61461 -0.819164,1.76267 0.238667,1.28069 z m 2.030114,-8.794186 c 0.0108,-0.431856 -0.09225,-0.674714 -0.245986,-0.579697 -0.145521,0.08994 -0.256215,0.662511 -0.245986,1.272383 0.01445,0.86206 0.06921,0.99108 0.245986,0.5797 0.125066,-0.29104 0.235759,-0.86362 0.245986,-1.272386 z M 43.235336,97.394755 c 0.26612,-0.240834 0.48386,-0.693272 0.48386,-1.005416 0,-0.312144 0.12898,-0.696519 0.28663,-0.854166 0.15765,-0.157648 0.28663,-0.82996 0.28663,-1.494027 0,-0.746771 0.15037,-1.332195 0.39416,-1.534522 0.2168,-0.179921 0.62604,-0.781627 0.90943,-1.337127 0.28487,-0.558394 1.00295,-1.31786 1.60595,-1.698521 0.83195,-0.525182 1.00327,-0.743882 0.72217,-0.921879 -0.6066,-0.384117 -0.92877,-0.277159 -1.24309,0.4127 -0.39029,0.856594 -1.49862,1.142363 -2.14873,0.554022 -0.46032,-0.416576 -0.52004,-0.401878 -1.03688,0.255183 -1.04226,1.325019 -1.62836,3.420752 -1.62836,5.822603 0,1.915837 0.0638,2.239033 0.44219,2.239033 0.2432,0 0.65992,-0.197046 0.92604,-0.437883 z M 152.93607,93.416501 c 0.0594,-1.656228 -0.0479,-2.456391 -0.4869,-3.629727 -0.61637,-1.647391 -1.78237,-3.15727 -2.01063,-2.603616 -0.2431,0.589633 -1.60114,0.381856 -2.16166,-0.330729 -0.53668,-0.682277 -1.21544,-0.86131 -1.50278,-0.396379 -0.0901,0.145793 0.11859,0.372455 0.46377,0.503694 1.38058,0.524895 3.17684,3.277175 3.28142,5.027889 0.0383,0.641549 0.19367,1.29044 0.34521,1.441979 0.15154,0.151539 0.27553,0.4852 0.27553,0.741469 0,0.543255 1.03879,1.595152 1.44323,1.461439 0.15291,-0.05055 0.31065,-1.041324 0.35281,-2.216019 z"
       id="path67"
       sodipodi:nodetypes="sssssscsssssssscssssssssssssscssscccssssssssssssscsssssssssssssssssssssssssssssssssssscssscccccsscssssssssssssssscssssscssssssssssssscsssscscsssssssscsssssssccsscssssssssscsssssssssssscsssssssssssscssssssssssssssssssscsssssscscssssscsssssssssssssssssssssssssssssscssssssscssssssssssssssssssssscssssssssssssssssssssscsssssssssc" />
  </g>
</svg>
